<svg xmlns="http://www.w3.org/2000/svg" viewBox="0 0 180 144.13"><defs><style>.cls-1{fill:#bda701;}</style></defs><g id="Layer_2" data-name="Layer 2"><g id="レイヤー_2" data-name="レイヤー 2"><path class="cls-1" d="M86.41,69.4l-.81-.78a.63.63,0,0,0-.39-.17l-1.07-.07-1-.15-.92-.29a.67.67,0,0,0-.28,0l-.94.15-1,0-.91,0-1.91-.3a.59.59,0,0,0-.23,0l-.83.2-.85-.21a.64.64,0,0,0-.41,0l-.82.37-.84,0H73.1L72,68.34l-.14,0-1,.44-.08,0-.65.4a.61.61,0,0,0-.29.62L70,71a.6.6,0,0,0,.24.39l.83.63.06,0,.78.47,1.47,1.16.11.07.83.38.9.49L76,75l.71.58a.62.62,0,0,0,.39.14h.1l.93-.15.86.09a.92.92,0,0,0,.29,0l.93-.37L82,74.37l.79-.46.92-.26a.6.6,0,0,0,.32-.22l.56-.74,1.49-.89a.56.56,0,0,0,.21-.22l.41-.71a.57.57,0,0,0,.05-.49l-.22-.72A.63.63,0,0,0,86.41,69.4Zm-1.07,1.43-1.44.86a.55.55,0,0,0-.18.16l-.51.67-.79.23a.42.42,0,0,0-.14.06l-.8.46-1.74.78-.77.3-.8-.08H78l-.73.12-.58-.47-.16-.1-.81-.3-.86-.47-.8-.37-1.43-1.13-.07,0L71.78,71l-.61-.46-.08-.48.27-.16.91-.39,1-.17.93,0a.56.56,0,0,0,.28,0L75.2,69l.79.2a.76.76,0,0,0,.3,0l.86-.21,1.83.29h.14l.92-.06,1,0h.13l.85-.14.82.26.09,0,1.1.17.89.06.54.51.1.31Zm9.19-13.89L95,55.8l-1-.41a.67.67,0,0,0-.34,0l-2.83.4h-1l-.13,0-1,.22a.72.72,0,0,0-.2.09l-.7.46-.9.06a.59.59,0,0,0-.49.3l-.46.8-.72.48a.62.62,0,0,0-.27.4l-.35,1.94a1.21,1.21,0,0,0,0,.19l.1.84a.56.56,0,0,0,.1.27l.37.58v.7a.63.63,0,0,0,.1.32l.45.71,0,.85a.8.8,0,0,0,.09.3l.5.82.42.83.25.89,1.19-.33-.27-1a.36.36,0,0,0,0-.11l-.47-.93-.44-.72,0-.86a.56.56,0,0,0-.09-.31l-.45-.7v-.71a.75.75,0,0,0-.1-.33l-.4-.61-.07-.6.29-1.6.42-.28,0,.48a.63.63,0,0,0,.09.38l.46.73a.34.34,0,0,0,.09.12l.62.61.61.5.16.1.69.28.77.4a.57.57,0,0,0,.22.07l.9.08h.06a.62.62,0,0,0,.41-.16l1.41-1.29a.94.94,0,0,0,.14-.19l.47-1a.64.64,0,0,0,0-.43l-.26-.94.11-.76a.67.67,0,0,0,0-.31l-.32-.81h0l.5-.09Zm-2.38,3.33-1.1,1-.51,0-.71-.37-.65-.27-.5-.41-.53-.52-.31-.5,0-.58.17-.79-.06,0h.13a.57.57,0,0,0,.3-.1l.75-.49L90,57l1,0,.82-.1.34.37.22.56-.1.72a.69.69,0,0,0,0,.25l.23.83ZM61.28,58.55l.15,2a.63.63,0,0,0,.1.29l.63.94a.56.56,0,0,0,.22.21l.85.45L64,63a.65.65,0,0,0,.38.13h1a.58.58,0,0,0,.26-.06l.94-.43.85-.49.8-.6a.59.59,0,0,0,.22-.3l.26-.8.21.2.11.7-.19.9a.45.45,0,0,0,0,.23l.16.94-.53,1.69-.63.76a.57.57,0,0,0-.14.41l0,1-.18.95,1.21.23.2-1a.57.57,0,0,0,0-.13l0-.85.55-.67a.82.82,0,0,0,.12-.2l.61-2a.67.67,0,0,0,0-.28l-.17-1,.19-.88a.74.74,0,0,0,0-.21l-.14-1A.63.63,0,0,0,70,59.9l-.65-.61-.39-.81a.6.6,0,0,0-.4-.33l-.92-.24-.72-.37L66,57a.64.64,0,0,0-.44-.11L64.7,57l-.87-.12-.84,0-.12,0,0-.1-.13.05-.55-.15a.69.69,0,0,0-.4,0l-.72.3-.77-.18-.92-.16-.2,1.22L60,58l.92.22a.62.62,0,0,0,.38,0l.06,0-.06.2A.64.64,0,0,0,61.28,58.55Zm3.34-.34h.17l.73-.1.71.49.85.44.13.05.23.06.16.78-.24.75-.58.44-.74.42-.77.35h-.68l-.64-.5-.09-.06-.76-.4-.45-.68-.13-1.66.18-.5.11-.05h.06l.85,0ZM94.56,86.44a.72.72,0,0,0-.09-.2l-.56-.82-.53-.9a.59.59,0,0,0-.27-.25l-.84-.41-.56-.71a.63.63,0,0,0-.12-.11l-.83-.63a.66.66,0,0,0-.32-.12l-.92-.08-.71-.53a.65.65,0,0,0-.39-.12l-.93,0-.83-.35a.58.58,0,0,0-.18,0l-1-.11-2-.1-.89-.13-.79-.49-.09,0L80,79.6,79.52,79l-.2-.68a.62.62,0,0,0-1.18,0l-.29.89-.23.92-.54.68-.71.52-.92.28-.13.05-.82.48-2,.22-1.14.18-.88.25-.91-.24a.66.66,0,0,0-.28,0l-1.07.23-1,.25-1.06.14-.11,0-1,.35a.62.62,0,0,0-.26.17L63.63,85l-.72.54a.63.63,0,0,0-.23.4l-.13.84-.29.78a.65.65,0,0,0,0,.34l.16.77-.13.8,1.22.18.13-.79.62.46.59,1a.6.6,0,0,0,.54.29.61.61,0,0,0,.52-.31l.52-.91a.54.54,0,0,0,0-.11l.29-.89.21-.83.13-.4.46.46.4.76a1,1,0,0,0,.09.13l.54.57a.62.62,0,0,0,.74.12l.74-.4a.59.59,0,0,0,.24-.23l.43-.75.71-.52a.72.72,0,0,0,.18-.21l.43-.81a.86.86,0,0,0,.14.13l1.51,1.11a.62.62,0,0,0,.68,0l1.48-.8a.58.58,0,0,0,.25-.24l.43-.76.52-.55.7-.59a.65.65,0,0,0,.16-.21l0-.05L79.5,86l.8.75a.6.6,0,0,0,.84,0L82,86l.1-.12.57-.9.12-.14,0,.08.07.1.56.68.44.78.06.08,1.31,1.54a.61.61,0,0,0,.47.21.62.62,0,0,0,.47-.22l.63-.77,1.51-.91a.8.8,0,0,0,.21-.2l.08-.13.08.08.24,1,.36,1a.83.83,0,0,0,.07.13l.55.82.4,1,.55,1a.66.66,0,0,0,.47.32h.07a.63.63,0,0,0,.46-.2l.74-.82.87-.72a.72.72,0,0,0,.21-.33l.24-.94.24.44,1.08-.6-.48-.85Zm-1.78,1.44-.24,1-.78.65-.23.25L91,88.57,91,88.46l-.55-.82-.31-.85-.26-1.06a.62.62,0,0,0-.15-.29L89,84.68a.62.62,0,0,0-.5-.19.61.61,0,0,0-.46.28l-.43.66-1.51.92a.86.86,0,0,0-.14.13l-.23.28-.77-.92-.44-.77L84.43,85l-.55-.68-.44-.82a.64.64,0,0,0-.48-.33.6.6,0,0,0-.53.22l-.74.86-.06.07-.55.87-.36.33-1-1.09L79,83.74l-.72-1a.62.62,0,0,0-.56-.25.61.61,0,0,0-.5.36l-.4.87-.65.55-.62.65a.83.83,0,0,0-.08.12l-.38.66-1,.54L73,85.42l-.49-.76a.62.62,0,0,0-.55-.28.64.64,0,0,0-.52.33l-.84,1.62-.71.52a.52.52,0,0,0-.17.19l-.41.71-.16.09L69,87.68l-.4-.77-.11-.15-.61-.61-.34-.68a.63.63,0,0,0-.56-.35.59.59,0,0,0-.55.36l-.37.8-.29.89-.2.83-.24.72-.1-.17a.65.65,0,0,0-.16-.17l-.78-.59-.34-.93-.16.06.08-.57.56-.43.07-.06,1.13-1.22.82-.27,1.07-.15,1-.26.9-.19.93.25a.62.62,0,0,0,.33,0l1-.29,1-.16,1.07-.1,1-.14a.62.62,0,0,0,.23-.07l.86-.5,1-.28a.69.69,0,0,0,.19-.1l.87-.64.12-.11.66-.86a.61.61,0,0,0,.11-.23l.09-.36.25.31a.69.69,0,0,0,.24.18l1.81.78L82,82a.57.57,0,0,0,.23.08l1.08.16,1,0,1.91.15.87.37a.58.58,0,0,0,.26,0l.86,0,.68.51a.59.59,0,0,0,.31.12l.92.07.63.47.6.77a.58.58,0,0,0,.21.17l.81.39.45.78.52.76.21.89a.58.58,0,0,0,.06.17l.14.24Zm-9.91,22.35,1,.54a.48.48,0,0,0,.23.07l1.13.12h.06a.62.62,0,0,0,.32-.09l1-.57.93-.49.09,0,.84-.64a.57.57,0,0,0,.11-.11l.62-.79.8-.67a.53.53,0,0,0,.17-.25l.37-.94.65-.8a.61.61,0,0,0,.13-.49.64.64,0,0,0-.28-.42l-.88-.55a.62.62,0,0,0-.55,0l-.73.28-.56-.23-.62-.56-1.38-1.11-.4-.48a.59.59,0,0,0-.47-.22.63.63,0,0,0-.47.21l-.56.64a.75.75,0,0,0-.13.25l-.22.83-.55.56-.62.45-.73.1-.1,0-.74.23-.85-.24a.71.71,0,0,0-.25,0l-.9.13-.89-.26a.56.56,0,0,0-.34,0l-.9.25-.9-.14h-.12l-.94,0-1.11-.1h-.94l-.54-.36-.45-.59-.29-.71-.23-.88a.62.62,0,0,0-1.08-.23l-.67.85a.71.71,0,0,0-.13.35l0,.82-.64.5a.61.61,0,0,0-.23.41l-.09.63-.49.18-.77-.28a.61.61,0,0,0-.51.05l-.74.43a.64.64,0,0,0-.25.8l.34.71a.42.42,0,0,0,.09.14l.67.77.64.87a.68.68,0,0,0,.21.17l.92.5.79.72a.62.62,0,0,0,.43.16l1.14,0a.59.59,0,0,0,.26-.07l.7-.36.84-.09a.7.7,0,0,0,.19-.06l.77-.37.79-.28.85-.07a.69.69,0,0,0,.31-.12l.65-.49.64,0,.84.29a.61.61,0,0,0,.3,0l.89-.15,1.75.4Zm-3.71-2.56-.85.15-.78-.27a.57.57,0,0,0-.18,0l-.95,0a.66.66,0,0,0-.38.12l-.69.51-.75.07a.32.32,0,0,0-.14,0l-.93.33-.74.35-.85.1a.48.48,0,0,0-.2.07l-.67.34-.76,0-.66-.6a.34.34,0,0,0-.12-.09l-.87-.47-.59-.8-.64-.74-.06-.12h0l.71.25a.58.58,0,0,0,.41,0l1-.37a.63.63,0,0,0,.4-.5l.1-.76.67-.52a.64.64,0,0,0,.24-.46V104l.1.23a.39.39,0,0,0,.08.14l.55.73a.47.47,0,0,0,.15.13l.77.53a.67.67,0,0,0,.34.1H74l1.14.1,1,0,1,.15a.57.57,0,0,0,.26,0l.86-.23.86.25a.46.46,0,0,0,.26,0l.9-.13.9.25a.53.53,0,0,0,.35,0l.86-.26.84-.12a.57.57,0,0,0,.28-.11l.79-.57.08-.07.7-.72a.61.61,0,0,0,.15-.27l.22-.83.06.06.73.57,1.34,1.16a.78.78,0,0,0,.18.11l.89.36a.58.58,0,0,0,.45,0l.68-.26,0,0-.28.33a.65.65,0,0,0-.09.16l-.35.89-.73.61-.08.09-.61.77-.73.57-.92.47-.81.48-.8-.08-2.85-1.46-.13,0-2-.44A.6.6,0,0,0,79.16,107.67ZM76.9,119.36l.61,1.08-1.1.61a.57.57,0,0,1-.28.08l-1.21,0h0a.61.61,0,0,1-.59-.46l-.16-.56-.49-.64a.54.54,0,0,1-.07-.13l-.41-.92a.49.49,0,0,1,0-.11l-.21-.89-.32-.46-.13,0h0l-.54.55-.66,1a.62.62,0,0,1-1.14-.26l-.11-1-.33-.67-.72-.58a.58.58,0,0,1-.2-.31l-.21-.77-.67-.48.73-1,.83.6a.6.6,0,0,1,.24.34l.22.79.66.54a.74.74,0,0,1,.16.2l.34.68.78-.81a.62.62,0,0,1,.63-.16l.26.09h.13a.62.62,0,0,1,.56.26l.58.85a.72.72,0,0,1,.09.2l.23,1,.36.81.52.68a.68.68,0,0,1,.1.21l.06.21.57,0Zm14-5.86,1.17.4-.32.94a.72.72,0,0,1-.16.25l-.7.66-1,1.6a.5.5,0,0,1-.15.17l-1.14.93a.62.62,0,0,1-.74,0l-.36-.24a.52.52,0,0,1-.17-.19l-.51-.81-.63-.64-.8-.54-.7-.34h0a.59.59,0,0,1-.13.23l-.6.66-.39.81a.6.6,0,0,1-.09.15l-.65.73-.66.63-.54,1.75-1.18-.36.58-1.91a.62.62,0,0,1,.17-.27l.74-.7.56-.63L83,116a.4.4,0,0,1,.1-.15l.56-.63.12-.38a.6.6,0,0,1,.65-.43l.57.06a.83.83,0,0,1,.21.06l.92.46.92.61.11.08.71.74.08.1.39.62.66-.53,1-1.59a.64.64,0,0,1,.1-.13l.65-.61Zm-30.59,1.34.9.24-.33,1.19-.85-.23-.74-.14-.14-.05-.74-.35-.8-.31a.61.61,0,0,1-.38-.43l-.16-.7-.53-.4a.65.65,0,0,1-.21-.28l-.3-.81-.49-.71a.31.31,0,0,1,0-.1l-.39-.85a.75.75,0,0,1,0-.26v-.76l-.49-.62a.57.57,0,0,1-.13-.33l-.09-.93a.38.38,0,0,1,0-.1l.05-.79-.36-.76A.6.6,0,0,1,54,106l.26-1.87,1.22.17L55.25,106l.35.74a.51.51,0,0,1,.06.3l0,.9.07.7.51.65a.62.62,0,0,1,.14.39v.85l.31.67.5.73a.37.37,0,0,1,.07.14l.27.71.56.43a.66.66,0,0,1,.23.35l.14.6.54.2.71.34ZM49.76,110l.1,1-1.22.13-.1-.89-.36-.68-.56-.75a.73.73,0,0,1-.12-.35l-.07-1.77-.37-.77a.5.5,0,0,1-.06-.34l.1-.9,0-.89-.12-.9v-.16l.13-.94a.48.48,0,0,1,.07-.2l.36-.7-.08-.81a.67.67,0,0,1,.11-.41l.54-.76.3-.71,0-.79-.16-.91a.57.57,0,0,1,0-.26l.23-.85.06-.74-.29-.74,1.15-.46.34.88a.69.69,0,0,1,.05.28l-.08.94a.52.52,0,0,1,0,.11l-.21.77.14.84a.61.61,0,0,1,0,.14l0,.95a.78.78,0,0,1,0,.21l-.36.87a.54.54,0,0,1-.07.13l-.45.62.08.76a.61.61,0,0,1-.07.35l-.4.77-.1.75.1.87,0,1a.27.27,0,0,1,0,.09l-.09.77.36.72a.86.86,0,0,1,.06.23l.07,1.74.47.64a.16.16,0,0,1,0,.07l.45.82A.88.88,0,0,1,49.76,110ZM47.32,83.83l-.63.5-.22.77a.51.51,0,0,1-.07.17l-.51.79a.87.87,0,0,1-.12.14l-.65.55-.38.74a.51.51,0,0,1-.13.16l-.65.62-.46.66-.33.82a.57.57,0,0,1-.11.16l-.54.64-.24.79-.06.13-.43.72-.06.86.05.92.16.91a.67.67,0,0,1,0,.2l-.16,1,0,.77.38.78a.5.5,0,0,1,0,.21l.08.87,1,1.53s0,.1.07.14l.29.85.54.71a.64.64,0,0,1,.08.14l.38.93-1.14.47-.35-.86-.55-.72a1,1,0,0,1-.1-.17l-.29-.87-1-1.63a.71.71,0,0,1-.09-.28L41,98.05l-.38-.81a.49.49,0,0,1-.06-.29l0-1,.16-1-.15-.87L40.49,93,40.57,92a.62.62,0,0,1,.09-.26l.46-.79.26-.83a.94.94,0,0,1,.12-.22l.56-.66.32-.79a.75.75,0,0,1,.07-.12l.54-.77a.24.24,0,0,1,.08-.09l.62-.59.39-.76a.65.65,0,0,1,.15-.18l.67-.57.41-.65.25-.87a.66.66,0,0,1,.21-.31l.6-.48.16-.75a.58.58,0,0,1,0-.14l.41-.84.47-.86,1.08.6-.46.83-.36.74-.19.89A.58.58,0,0,1,47.32,83.83ZM33.56,88.77a.61.61,0,0,1,0-.44l.36-.92,0-1a.64.64,0,0,1,.24-.46l.7-.53.21-.77a.46.46,0,0,1,.07-.16l.51-.84a.48.48,0,0,1,.09-.11l.7-.7.79-.66.69-.64.12-.09.75-.4.49-.71a.47.47,0,0,1,.14-.14l.73-.54.61-.69.11-.09.79-.56.1,0L42.5,78l.28-.77a.59.59,0,0,1,.34-.35l.73-.32.25-.71a.56.56,0,0,1,.09-.17l1.13-1.51.29-.74,0-.92v-.12l.15-1a.64.64,0,0,1,.06-.18l.42-.84.12-.85v-1h1.23v1.12l-.15,1a.6.6,0,0,1-.06.19l-.42.84-.12.83.06,1a.82.82,0,0,1,0,.26l-.38.94a.55.55,0,0,1-.08.15l-1.11,1.49-.31.88a.6.6,0,0,1-.34.36l-.74.32-.27.76a.63.63,0,0,1-.33.35l-.88.4-.69.49-.6.68a.39.39,0,0,1-.1.08l-.7.52-.51.74a.7.7,0,0,1-.22.2l-.8.43-.66.61-.77.64-.61.61-.43.7L36,86a.63.63,0,0,1-.22.33l-.63.49,0,.79a.59.59,0,0,1,0,.19l-.3.79.29.79a.85.85,0,0,1,0,.17l.06.92.45.8.52.7.76.57-.75,1-.83-.63a.74.74,0,0,1-.12-.13l-.62-.84-.55-1a.79.79,0,0,1-.08-.26l-.07-1Zm2.17-13.25-.21-1.79a.7.7,0,0,1,0-.32l.35-.8.22-.93a.72.72,0,0,1,.09-.2l.5-.73.15-.92A.57.57,0,0,1,37,69.5l.7-.71L38.3,68l.06-.07.72-.73,1.18-1.5.46-.8L41,64s0-.07.05-.1l.49-.88.05-.08.58-.74.71-1.69L43,58.56l1.24.06-.14,2a.47.47,0,0,1,0,.17l-.79,1.9a.57.57,0,0,1-.08.13l-.6.77-.44.78-.32,1a.47.47,0,0,1,0,.1l-.51.89a.22.22,0,0,1-.05.08L40,68l-.73.74-.56.78-.06.07-.59.61-.14.86a.54.54,0,0,1-.09.25l-.51.75-.21.87a.3.3,0,0,1,0,.1l-.3.7.17,1.53.29.63.46.48.65.35-.57,1.09L37,77.44a.51.51,0,0,1-.16-.13l-.6-.63a.62.62,0,0,1-.11-.17l-.37-.8A.45.45,0,0,1,35.73,75.52Zm69.08,29.4a.76.76,0,0,1,0,.21l0,1a.58.58,0,0,1,0,.18l-.34.93-.2.8,0,.9a.56.56,0,0,1-.14.36l-.52.65-.32.77a.61.61,0,0,1-.19.26l-.69.54-.54.73-.46.9-.63.94-1-.7.59-.87.44-.87a.27.27,0,0,1,.06-.1l.63-.83a.43.43,0,0,1,.11-.12l.62-.49.29-.7a.51.51,0,0,1,.09-.16l.46-.57,0-.76a.5.5,0,0,1,0-.12l.23-.93.33-.89,0-.78-.27-.86a.59.59,0,0,1,0-.14l-.12-1.93a.44.44,0,0,1,0-.2l.25-.91,0-.74-.39-.84a.59.59,0,0,1-.06-.32l.09-.88-.21-.89a.59.59,0,0,1,.09-.48l.46-.7-.13-.81a.82.82,0,0,1,0-.31l.35-.94,1.16.43-.29.79.14.88a.63.63,0,0,1-.1.44l-.45.68.17.73a.68.68,0,0,1,0,.2l-.08.81.37.78a.9.9,0,0,1,.06.22l.06,1a.5.5,0,0,1,0,.21l-.26.91.11,1.75Zm8.55-13.16.08,1a.57.57,0,0,1,0,.29l-.38.89a.2.2,0,0,1,0,.08l-.39.65.06.81a.64.64,0,0,1-.11.4l-.43.61.1.74a.56.56,0,0,1-.07.38l-.37.67.44,1.52a.59.59,0,0,1,0,.13l.07.9.17.87a.56.56,0,0,1,0,.38l-.39.82-.18,1.75,0,.11-.28.89-.15.88a.82.82,0,0,1-.1.24l-.54.78-1-.7.47-.67.15-.82.28-.91.19-1.78a.46.46,0,0,1,.05-.2l.35-.73-.14-.74-.08-.91-.49-1.73a.62.62,0,0,1,.06-.46l.39-.71-.1-.78A.66.66,0,0,1,111,96l.44-.63-.06-.78a.62.62,0,0,1,.09-.37l.47-.78.3-.71-.06-.75-.5-1.63-.68-.55a.53.53,0,0,1-.2-.29l-.29-.93-.5-.77-.61-.81a.59.59,0,0,1-.09-.56l.34-1,1.17.39-.24.72.44.58.57.88a1,1,0,0,1,.07.15l.26.83.68.55a.61.61,0,0,1,.2.29l.58,1.89A.5.5,0,0,1,113.36,91.76Zm5.58-4.3.16.88a.49.49,0,0,1,0,.24l-.18.92-.6,1.85-.18.86-.14.9-.25,1-.06.14-.42.76-.13.77,0,.89-1.23,0,0-1a.49.49,0,0,1,0-.12l.15-.94a.68.68,0,0,1,.07-.2l.43-.78.23-.84.12-.88.22-1,.58-1.82.15-.74-.15-.81a.28.28,0,0,1,0-.09l0-.92-.12-.8-.35-.71-.46-.55-.81-.27a.56.56,0,0,1-.2-.11l-.72-.58-.71-.75-.58-.74-.68-.54a.65.65,0,0,1-.15-.18l-.52-.92-.5-.76-.81-.72a.64.64,0,0,1-.2-.52l.1-1-.46-.81,1.07-.61.56,1a.67.67,0,0,1,.08.37l-.09.83.63.56a.6.6,0,0,1,.11.12l.56.87.49.85.63.51a.47.47,0,0,1,.1.1l.6.75.61.66.57.46.87.28a.7.7,0,0,1,.29.19l.61.74a.6.6,0,0,1,.09.13l.42.87a.64.64,0,0,1,.06.18l.13,1Zm3.57-5.27a.66.66,0,0,1,0,.37l-.44,1-.28.94-1.18-.36.31-1,.38-.88-.19-.91a.49.49,0,0,1,0-.12l0-1.94-.36-.85a.16.16,0,0,1,0-.09l-.22-.84-.66-.53-.7-.71-.84-.4-.93-.36a.76.76,0,0,1-.19-.12l-.68-.64-.89-.37a.66.66,0,0,1-.22-.15l-.72-.8-.68-.59-.88-.48a.69.69,0,0,1-.23-.22l-.48-.78-.82-.47a.68.68,0,0,1-.27-.31l-.32-.84-.22-.75-.4-.64,1-.66.45.71a.77.77,0,0,1,.07.16l.23.79.23.58.75.43a.63.63,0,0,1,.22.21l.49.78.79.44a.5.5,0,0,1,.12.08l.78.69.67.74.86.36a.42.42,0,0,1,.18.11l.68.63.86.34,1,.47a.66.66,0,0,1,.17.12l.73.74.76.6a.57.57,0,0,1,.22.33l.25,1,.39.91a.78.78,0,0,1,0,.21l0,1v1ZM109.25,55.93a.52.52,0,0,1-.1-.27L109,54.59l1.23-.15.11.92.46.68.77.58a.6.6,0,0,1,.16.19l.46.8.7.41,1,.28a.58.58,0,0,1,.31.2l.57.69.87.27a.65.65,0,0,1,.34.27l.49.82.76.5a.57.57,0,0,1,.24.31l.35.93.48.81a.41.41,0,0,1,0,.09l.35.91a.69.69,0,0,1,0,.35l-.18.82.19.89a.61.61,0,0,1-.15.55l-.6.65-.13.78-.25,1a.6.6,0,0,1-.13.25l-.64.75-.94-.8.55-.64.21-.81.14-.91a.65.65,0,0,1,.16-.32l.51-.55-.15-.7a.61.61,0,0,1,0-.27l.16-.77-.26-.68-.49-.81a.54.54,0,0,1,0-.11l-.29-.8-.71-.46a.61.61,0,0,1-.19-.2l-.45-.74-.81-.26a.55.55,0,0,1-.29-.2l-.57-.68-.86-.24-.14-.06-.91-.54a.58.58,0,0,1-.22-.22l-.48-.84L110,57a.62.62,0,0,1-.14-.14ZM54.35,45.55l-.49,1.14L53,46.3,52,46.11a.64.64,0,0,1-.18-.06L51,45.56l-.87-.62-.71-.68L48.66,44h-1l-.85-.14-.79.36-.94.38-.7.44-.37.82-.51.84-.12.85.09,2,.15.87.33.91.25,1,.4.89.93.47L45,54.76l-1.13-.57a.65.65,0,0,1-.28-.29L43,52.76l0-.11-.25-1-.32-.9a.19.19,0,0,1,0-.1l-.18-1-.09-2.11a.33.33,0,0,1,0-.1l.15-1a.62.62,0,0,1,.08-.24l.54-.88.41-.91a.61.61,0,0,1,.23-.27l.91-.57a.31.31,0,0,1,.1-.05l1-.39.93-.43a.62.62,0,0,1,.36,0l1,.16h1a.43.43,0,0,1,.19,0l1,.33a.64.64,0,0,1,.22.14l.74.71.74.54.73.39.89.18.12,0Zm55.48-2.61-1.6-.76-.87-.1-1.94.31-1,.34-.9.44-.95.35-.66.7a.61.61,0,0,1-.24.15l-.92.33-.74.66a.57.57,0,0,1-.31.15l-1.1.18-.2-1.22.93-.15.69-.62a.82.82,0,0,1,.2-.12l.89-.32.67-.7a.55.55,0,0,1,.24-.15l1-.37.9-.44,1.06-.39.11,0,2.09-.33h.16l1.06.12a.42.42,0,0,1,.21.06l.95.47,1,.45a.63.63,0,0,1,.35.48l.15,1,.68.75a.61.61,0,0,1,.14.55l-.23,1.06v1a.47.47,0,0,1,0,.17l-.3,1.06L111,49.12l-1.16-.42.37-1,.26-.93v-1a.57.57,0,0,1,0-.13l.18-.83-.59-.65a.6.6,0,0,1-.16-.33ZM61.45,39.25l.82-.17.63-.47.83-.54a.48.48,0,0,1,.16-.08l.91-.27a.65.65,0,0,1,.34,0l.91.24.79.07,1.81-.21a.41.41,0,0,1,.19,0l.91.18.93.25.89.35,1,.21,1,.27,1,.07,1.06,0,0,1.23-1.08,0-1.11-.08-.12,0-1-.27-1-.22-.1,0-.86-.34-.83-.22-.78-.16-1.75.21H66.8l-.91-.08-.11,0L65,39l-.65.19-.72.48-.72.53a.6.6,0,0,1-.25.1l-.8.16-.61.5-.52.54-.34.76-1.13-.51.39-.86a.66.66,0,0,1,.12-.17L60.4,40l.78-.64A.55.55,0,0,1,61.45,39.25Zm33.74.86-.85-.25a.64.64,0,0,1-.3-.2L93.46,39l-.75-.17h-1l-1,0h-.09l-.9-.09-.87.27-.12,0-1,.09-1,.22a.5.5,0,0,1-.17,0l-.9-.05-.84.37a.67.67,0,0,1-.37,0l-.93-.19-.88.2a.61.61,0,0,1-.3,0l-.89-.26-.91.1a.61.61,0,0,1-.19,0l-1-.2a.62.62,0,0,1-.28-.14l-.8-.69.8-.93.68.58.76.15.94-.1a.65.65,0,0,1,.24,0l.85.25.86-.19a.53.53,0,0,1,.25,0l.86.17.8-.35a.82.82,0,0,1,.28,0l1,0,.91-.21.08,0,1-.08.93-.29a.65.65,0,0,1,.24,0l1,.09,1,0h1.2l1,.23a.64.64,0,0,1,.35.21l.59.73.83.25a.7.7,0,0,1,.29.19l.69.77-.93.82Zm3.3-4.65-.81-.16a.5.5,0,0,1-.23-.09l-.67-.45L96,34.68l-.89-.16-.86.09-.91.06-.81.2-.8.38-.17,0-1,.15-.88.1L89,36l-.66-1,.82-.53a.62.62,0,0,1,.26-.09l1-.11.84-.14.78-.36.12,0,.92-.23.11,0,.94-.06.92-.1h.17l.93.16.91.09a.69.69,0,0,1,.28.11l.71.47.86.16a.54.54,0,0,1,.29.15l1.44,1.26a.65.65,0,0,1,.15.18l.39.72.7.45a.85.85,0,0,1,.17.16l.56.78-1,.72-.49-.68-.74-.47a.69.69,0,0,1-.22-.23l-.41-.77ZM51,41l-.2-1.22.86-.14.79-.39.8-.47a.56.56,0,0,1,.2-.08l1-.17.63-.47.64-.73a.52.52,0,0,1,.29-.18l.9-.27.81-.41,1-.39a.66.66,0,0,1,.34,0l1,.19.82.26.82-.25.36,1.18-1,.31a.62.62,0,0,1-.38,0l-.93-.31-.72-.14-.77.3-.79.41-.11,0-.79.23-.57.64-.09.09-.8.59a.68.68,0,0,1-.26.12l-1,.18-.74.43-.9.46-.18.06Zm15.82-4.81-.8-.95.78-.65a.94.94,0,0,1,.12-.09l.87-.43,1.57-1.16a.51.51,0,0,1,.16-.09l2-.67a.72.72,0,0,1,.25,0l1,.1.93.15.94-.18a.57.57,0,0,1,.26,0l1,.23a.72.72,0,0,1,.22.1l.75.54.91.21a.62.62,0,0,1,.22.1l.77.56a.8.8,0,0,1,.13.13l.47.6.75.18a.61.61,0,0,1,.34.21l.66.79-.95.79L79.59,36l-.77-.17a.7.7,0,0,1-.35-.23l-.55-.71-.59-.44-.9-.2a.94.94,0,0,1-.23-.1l-.75-.54-.76-.18-.92.18a.54.54,0,0,1-.22,0l-1-.17-.86-.08L70,34,68.44,35.1l-.1.06-.84.42ZM80.65,34l-.28-1.21,2.69-.62.11,0,.92,0a.41.41,0,0,1,.16,0l.75.17.79-.27a.61.61,0,0,1,.44,0l.81.35.84.14.9.07-.11,1.23-.94-.08-1-.16a.42.42,0,0,1-.15,0L86,33.24l-.74.24a.62.62,0,0,1-.33,0l-.83-.19-.79,0Zm-18,48.57-1.23.12-.1-1.15a.6.6,0,0,1,0-.26l.71-2.14a.67.67,0,0,1,.16-.25l.63-.63.44-.76.59-.85a.51.51,0,0,1,.22-.19l.78-.42.5-.72.2-1a.67.67,0,0,1,.1-.23l.66-1,1,.7-.59.86-.21,1a.43.43,0,0,1-.09.23l-.66,1a.51.51,0,0,1-.22.19l-.78.42-.48.68-.46.8-.1.12-.57.58-.64,1.91Zm34-3,.1,1a.55.55,0,0,1,0,.22l-.26,1-1.19-.31.23-.89-.09-.91v-.11l.07-1,0-.83-.38-.8L94.76,76l-.54-.69-.57-.47-.85-.2a.59.59,0,0,1-.39-.28l-.47-.79-1.23-1.17L90,71.71l.83-.92,1.4,1.28.67.66a.58.58,0,0,1,.1.12l.37.63.73.17a.57.57,0,0,1,.27.13l.72.61.09.09.64.81a1.62,1.62,0,0,1,.1.18l.34,1,.42.86a.57.57,0,0,1,.06.25l0,1ZM77.49,94l-.13.72.13.73a.41.41,0,0,1,0,.11v.58l.8.77h.36l.61-.49,0-.93a.69.69,0,0,1,0-.24l.44-.93-.1-.91v-.09l0-1.07.3-2.15a.63.63,0,0,1,.26-.41l.8-.55a.58.58,0,0,1,.42-.11l.95.1,1.87.38a.59.59,0,0,1,.43.32l.43.81.66.52a.67.67,0,0,1,.19.25l.75,1.76a.66.66,0,0,1,0,.15l.12.82.46.76a.59.59,0,0,1,.08.43l-.16.92v.9H86.13v-1a.34.34,0,0,1,0-.1l.13-.75-.41-.67a.63.63,0,0,1-.08-.23l-.13-.86L85,92.05l-.64-.5a.64.64,0,0,1-.16-.2l-.35-.67-1.54-.31-.66-.07-.4.27L81,92.37l0,1,.12,1a.66.66,0,0,1-.06.34l-.46,1,0,1.09a.6.6,0,0,1-.23.45l-1,.8a.62.62,0,0,1-.39.14h-.81a.63.63,0,0,1-.42-.16l-1.18-1.13a.61.61,0,0,1-.19-.43v-.79l-.14-.79a.54.54,0,0,1,0-.22l.13-.74L76,91.81l0-1-.6-.54-.79-.35h-.88l-.7-.07-.31.34-.19.73a1,1,0,0,1-.12.23l-.49.59-.11.64.1.7.38.72a.77.77,0,0,1,.07.26l.1,1.61.51.59a.6.6,0,0,1,.14.39l0,.93.37.86a.69.69,0,0,1,0,.4l-.24,1,.11,1.93-1.23.08-.12-2a.88.88,0,0,1,0-.17l.21-.86L71.91,98a.69.69,0,0,1,0-.24l0-.83-.48-.57a.74.74,0,0,1-.15-.34l-.12-1.73-.36-.7a.44.44,0,0,1-.07-.19l-.13-.9a.66.66,0,0,1,0-.2l.16-.9a.52.52,0,0,1,.13-.28l.5-.61.2-.74a.51.51,0,0,1,.14-.26l.62-.68a.6.6,0,0,1,.52-.2l.94.1.94,0a.85.85,0,0,1,.26,0l1,.45a.44.44,0,0,1,.16.1l.87.79a.62.62,0,0,1,.21.44l0,1.19.28,2.1A.67.67,0,0,1,77.49,94ZM34.26,122.14l1,.78-.56.69-.07.08-.65.56a.5.5,0,0,1-.14.1l-.79.38-.5.31-.21.7a.53.53,0,0,1-.08.17l-.48.69-.07.08-.51.52-.21.68-.18.72v.85a.6.6,0,0,1-.38.56.68.68,0,0,1-.23.05.65.65,0,0,1-.44-.18l-.66-.66-.6-.67a.77.77,0,0,1-.14-.25l-.21-.73-.48-.56a.6.6,0,0,1-.15-.4v-.76l-.81-1.39a.64.64,0,0,1-.08-.3l-.05-1.72a.44.44,0,0,1,0-.16l.16-.75-.07-.81a.6.6,0,0,1,.21-.52l.51-.45,0-.68a.61.61,0,0,1,.32-.58l.71-.39.42-.57a.73.73,0,0,1,.18-.17l1.41-.86a.42.42,0,0,1,.14-.06l.79-.26.38,1.18-.72.23-1.26.77-.42.57a.49.49,0,0,1-.2.18l-.5.28,0,.6a.6.6,0,0,1-.21.49l-.5.44.05.59a.59.59,0,0,1,0,.19l-.17.76,0,1.53.81,1.36a.73.73,0,0,1,.09.32v.7l.43.5a.57.57,0,0,1,.12.23l.21.73.18.2.12-.49.27-.85a.58.58,0,0,1,.15-.25l.58-.59.39-.56.25-.82a.62.62,0,0,1,.26-.35l.75-.47.78-.38.54-.48Zm-10.37.24.72,1-.69.49-.55.57-.49.7-.56.71a.57.57,0,0,1-.14.13l-.62.43-.24.53a.63.63,0,0,1-.57.37h0a.64.64,0,0,1-.56-.37l-.26-.6-.46-.71a.64.64,0,0,1-.08-.49l.19-.71-.3-.56a.66.66,0,0,1-.08-.34l.06-.76-.45-1.55a.55.55,0,0,1,0-.36l.26-.84.16-.66-.11-.8a.74.74,0,0,1,0-.29l.29-.82a.49.49,0,0,1,.11-.18L20.63,116l.41-.7a.61.61,0,0,1,.29-.26l.67-.28.48-.6,1,.78-.58.71a.61.61,0,0,1-.24.18l-.62.26-.33.58-.07.09-1,1.23-.21.57.11.77a.55.55,0,0,1,0,.22l-.19.82-.22.7.43,1.49a.76.76,0,0,1,0,.21l-.05.69.33.62a.61.61,0,0,1,0,.44l-.17.69.15.24.6-.41.48-.62.5-.7a.21.21,0,0,1,.06-.08l.62-.65.09-.07ZM15.68,122l.15,1.23-.7.08-.54.44a.78.78,0,0,1-.2.11l-.62.2-.27.6a.64.64,0,0,1-.26.28l-.53.3,0,.65a.63.63,0,0,1-.26.47l-.58.41-.18.84a.62.62,0,0,1-.59.49h0a.62.62,0,0,1-.6-.46l-.26-1-.27-.6-.58-.54a.61.61,0,0,1-.2-.49l0-.79-.74-2.32L8.29,121a.6.6,0,0,1,.05-.35l.32-.74.23-2.41a.62.62,0,0,1,.09-.26l.44-.73.47-.62.19-.78a.56.56,0,0,1,.16-.29l.62-.62.13-.1.77-.42.64-.46.15-.08,1.63-.54.37,1.18-1.51.5-.62.44-.75.42-.44.43-.17.73a.61.61,0,0,1-.11.23l-.51.67-.34.56-.22,2.38a.61.61,0,0,1-.05.18l-.29.67.1.66.75,2.3a.85.85,0,0,1,0,.23l0,.63.46.43a.67.67,0,0,1,.14.19l.15.33.31-.23.05-.69a.61.61,0,0,1,.31-.5l.65-.37.31-.66a.6.6,0,0,1,.36-.32l.77-.26.6-.48a.62.62,0,0,1,.31-.14Zm-9.33-7.77.53,1.11-.92.44a.54.54,0,0,1-.3.06l-.78,0-1.21.91-.21.79a.64.64,0,0,1-.16.29l-.64.61-.5.8-.57.77-.34,1.75,0,.86.06.69.49.64a.69.69,0,0,1,.1.19l.27.86a.5.5,0,0,1,0,.12v.08l.65-.9.54-.69a.79.79,0,0,1,.2-.17l.78-.41.65-.42.68,1L5,124l-.72.37-.93,1.24-.42.61-.15.56a.62.62,0,0,1-.46.44H2.16A.59.59,0,0,1,1.7,127l-.51-.58a.74.74,0,0,1-.15-.34L1,125.23l-.22-.69-.53-.71a.61.61,0,0,1-.13-.32L0,122.58l0-1a.49.49,0,0,1,0-.12l.38-1.9a.54.54,0,0,1,.11-.27l.63-.83.5-.82.1-.12.56-.55.22-.84a.64.64,0,0,1,.23-.33l1.56-1.17a.63.63,0,0,1,.4-.12l.84,0Zm38,3.27.59,1.62-1.16.41-.62-1.67a1.16,1.16,0,0,1,0-.18l0-.81-1.13-3.19-.51-.6,0-.07-.41-.67-1.38-.86-.73-.16-.87,0a.58.58,0,0,1-.32-.07l-.75-.39-.75-.1-.9,0a.44.44,0,0,1-.16,0l-.91-.21-.14,0-.84-.43-.87-.35-.93-.52-.1-.08-.69-.61L30,108.2l-.81-.08a.64.64,0,0,1-.36-.17l-.61-.59-.63-.22h-.83a.59.59,0,0,1-.23,0l-.74-.29H25a.45.45,0,0,1-.22,0l-.79-.3-.75-.07-.8.1-.85.23a.57.57,0,0,1-.26,0l-.77-.11-.74.22-.15,0-.86,0-.74.15-.71.4a.57.57,0,0,1-.28.08l-.81,0-.69.36-.76.28-.48.61a.55.55,0,0,1-.2.17l-.68.37-.48.62a.62.62,0,0,1-.2.16l-.86.45-.57-1.1.74-.38.48-.61a.49.49,0,0,1,.19-.16l.68-.37.51-.66a.63.63,0,0,1,.28-.2l.87-.31.73-.39a.58.58,0,0,1,.26-.06l.79,0,.68-.37a.48.48,0,0,1,.18-.07l.88-.18h.1l.83,0,.79-.23a.5.5,0,0,1,.27,0l.78.12.77-.21.08,0,.91-.11a.33.33,0,0,1,.14,0l.9.08.16,0,.76.29h.8a.54.54,0,0,1,.22,0l.75.28h.82a.64.64,0,0,1,.2,0l.86.3a.68.68,0,0,1,.23.14l.55.53.72.08a.57.57,0,0,1,.22.07l.8.41a.38.38,0,0,1,.13.09l.69.62.8.45.84.34.82.42.76.18.87,0h.09l.92.12a.83.83,0,0,1,.21.06l.69.37.79,0H39l.91.19a.76.76,0,0,1,.21.08l1.59,1a.64.64,0,0,1,.2.2l.46.75.54.65a.42.42,0,0,1,.11.18l1.2,3.36a1.16,1.16,0,0,1,0,.18Zm107-45.55.05,1.81a.55.55,0,0,1,0,.18l-.19.79,0,.84v.11l-.1.94a.66.66,0,0,1-.19.38l-.6.57-.2.74a.62.62,0,0,1-.18.3l-.63.56-.39.71-1.14,1.55a.58.58,0,0,1-.48.24.78.78,0,0,1-.22,0,.63.63,0,0,1-.4-.62l0-.82-.19-.81s0-.07,0-.11l0-.83-.3-.57-.72-.44a.64.64,0,0,1-.22-.24l-.83-1.53-.58-.46-.79-.39a.52.52,0,0,1-.24-.2l-.55-.77,1-.72.46.65.71.35.12.07.72.59a.5.5,0,0,1,.15.17l.83,1.52.72.44a.53.53,0,0,1,.23.24l.44.84a.51.51,0,0,1,.06.25l.1,1.1.09-.12.4-.74a.4.4,0,0,1,.13-.16l.56-.52.2-.72a.66.66,0,0,1,.17-.29l.56-.54.08-.66-.06-.89a.41.41,0,0,1,0-.19l.2-.8,0-1.56-.43-.63a.58.58,0,0,1-.1-.4l.06-.64-.57-.31a.63.63,0,0,1-.3-.41l-.17-.75-.58-.4-.68-.54-.79-.25.37-1.18.9.29a.54.54,0,0,1,.2.1l.74.59.74.51a.63.63,0,0,1,.25.37l.16.72.68.37a.62.62,0,0,1,.32.6l-.08.82.41.6A.64.64,0,0,1,151.31,71.91Zm9.47-1.29a.67.67,0,0,1,.1.34l0,.93a.52.52,0,0,1,0,.17l-.24.79.08.83a.41.41,0,0,1,0,.11l-.08.95a.72.72,0,0,1-.09.27l-.43.69-.08.82a.66.66,0,0,1-.23.43l-.64.5-.09.7a.45.45,0,0,1,0,.11l-.32,1a.62.62,0,0,1-.49.42h-.1a.63.63,0,0,1-.5-.25l-.61-.82a.56.56,0,0,1-.09-.19l-.22-.73-.46-.45-1.45-.89-.73-.53a.52.52,0,0,1-.11-.1l-.57-.68.94-.8.52.63.64.46,1.45.89a.31.31,0,0,1,.11.09l.63.61a.56.56,0,0,1,.17.26l.07.24.05-.42a.59.59,0,0,1,.23-.4l.63-.5.07-.7a.62.62,0,0,1,.09-.26l.42-.69.07-.75-.09-.89a.58.58,0,0,1,0-.23l.25-.83v-.66l-.43-.67a.61.61,0,0,1-.07-.14l-.27-.84-.18-.91-.3-.64-.61-.49a.65.65,0,0,1-.13-.16l-.36-.57-.69-.13.22-1.21,1,.17a.64.64,0,0,1,.41.29l.45.71.64.52a.6.6,0,0,1,.17.22l.39.84a.78.78,0,0,1,0,.14l.17.91.23.69Zm10.56-1.48.08.93a.61.61,0,0,1,0,.3l-.34.8L171,72.9l-.17,1-.3,1a.56.56,0,0,1-.17.26l-.55.52-.06.75a.59.59,0,0,1-.1.29l-.52.77a.58.58,0,0,1-.19.19l-.67.4a.61.61,0,0,1-.74-.08l-.58-.54a.64.64,0,0,1-.19-.45v-.69l-.61-.38a.63.63,0,0,1-.28-.41l-.13-.7-.61-.33a.72.72,0,0,1-.23-.23l-.38-.63-.68-.23-.09,0-.83-.42.55-1.1.79.39.86.28a.62.62,0,0,1,.34.27l.42.69.71.4a.63.63,0,0,1,.31.42L167,75l.67.41a.66.66,0,0,1,.3.52v.77l0,0,.16-.09.34-.52.07-.83a.64.64,0,0,1,.2-.4l.6-.57.24-.73.14-.83L169.8,71a.59.59,0,0,1,0-.23l.33-.77-.06-.71-.24-.77-.42-.77a.58.58,0,0,1-.05-.14l-.24-.88-.24-.6-.65-.43a.67.67,0,0,1-.15-.14l-.54-.7-.47-.69-1.33-.94-.78-.31.47-1.15.84.34a.57.57,0,0,1,.13.08l1.47,1a.81.81,0,0,1,.16.16l.51.76.45.58.74.48a.58.58,0,0,1,.23.3l.33.85.24.87L171,68a.43.43,0,0,1,0,.12l.28.89A.59.59,0,0,1,171.34,69.14ZM180,75.5l-.26.84a.65.65,0,0,1-.11.22l-.47.55,0,.71a.67.67,0,0,1-.07.24l-.4.77a.41.41,0,0,1-.07.11l-.64.79a.64.64,0,0,1-.48.22h-.07a.62.62,0,0,1-.49-.34l-.44-.93L176,78a.47.47,0,0,1-.06-.15l-.23-.82-.32-.53-.74-.28a.58.58,0,0,1-.33-.3l-.43-.85,1.1-.56.32.64.72.28a.67.67,0,0,1,.3.25l.48.78a1.11,1.11,0,0,1,.07.16l.23.83.44.8.31-.6.06-.79a.61.61,0,0,1,.14-.34l.51-.61.17-.54-.22-.74a.69.69,0,0,1,0-.25l.09-.78-.06-.78-.1-.63-.36-.61a.66.66,0,0,1-.08-.21l-.13-.74-.33-.65,0-.08-.26-.78-.76-.46a.63.63,0,0,1-.19-.17l-.51-.72-.75-.45-.1-.07-.54-.51-.71.24-.39-1.17,1.06-.35a.57.57,0,0,1,.61.13l.77.71.8.48a.73.73,0,0,1,.18.17l.51.72.85.51a.57.57,0,0,1,.26.33l.32,1,.35.69a.49.49,0,0,1,.06.17l.13.71.36.62a.53.53,0,0,1,.08.22l.13.8.06.9v.11l-.08.71.23.79A.55.55,0,0,1,180,75.5ZM163.48,57.15l-.83-.32-.75-.35-.78,0a.51.51,0,0,1-.22,0l-.69-.31-.74.1-.92.06h-.09l-.88-.06-.12,0-.74-.2-.73.16a.41.41,0,0,1-.19,0l-.74-.06-.7.31-.16,0-.88.12a.81.81,0,0,1-.22,0l-.7-.16-.57.37-.16.08-.85.25-.11,0-.83.09-.69.3-.65.4-.13.06-.71.22-.58.31-.59.47a.56.56,0,0,1-.17.09l-.83.32a.57.57,0,0,1-.29,0l-.73-.08-.66.35-.12.05-.87.24-.16,0h-.82l-.8.18a.42.42,0,0,1-.16,0l-.77,0-.69.29-.85.26-.64.38-.51.51-.41.68-.06.08-.48.56-.38,1.52a.57.57,0,0,1-.14.28l-.54.6-.18.57.09.8a.6.6,0,0,1,0,.23l-.23.83a.5.5,0,0,1-.05.13l-.41.74-.27.74-.13.77V71a.55.55,0,0,1-.14.4l-.53.64-.17.72-.08.82a.58.58,0,0,1,0,.18l-.32.76-.13.81-.35,1.77a.58.58,0,0,1-.12.25l-.47.63-.09.69,0,.89a.63.63,0,0,1-.09.33l-.41.69-.12.78a.54.54,0,0,1-.09.24l-.42.66-.12.77-.24.93-.33.84-.14.84a.57.57,0,0,1-.18.35l-.62.58-.6,1.52a.51.51,0,0,1-.15.23l-.6.57-.42.7L126.26,89l.47-.78a.57.57,0,0,1,.1-.13l.56-.52L128,86a.6.6,0,0,1,.14-.21l.56-.52.12-.7a.5.5,0,0,1,0-.13l.33-.83.2-.8.13-.83a.5.5,0,0,1,.09-.24L130,81l.12-.76a.63.63,0,0,1,.08-.23l.38-.64v-.85l.12-.9a.65.65,0,0,1,.11-.29l.49-.65.46-2.47a.57.57,0,0,1,0-.14l.31-.74.09-.81.21-.94a.5.5,0,0,1,.13-.25l.48-.58v-.7a.34.34,0,0,1,0-.1l.14-.88a.27.27,0,0,1,0-.12l.31-.84s0,0,0-.08l.39-.71.17-.65-.09-.81a.55.55,0,0,1,0-.25l.25-.83a.76.76,0,0,1,.13-.23L135,64l.4-1.55a.55.55,0,0,1,.12-.24l.54-.62.42-.7a.47.47,0,0,1,.09-.12l.62-.62a.47.47,0,0,1,.12-.09l.77-.46a.42.42,0,0,1,.14-.06l.86-.26.76-.32a.58.58,0,0,1,.26-.05l.83,0,.78-.18h.94l.72-.2.77-.41a.61.61,0,0,1,.35-.06l.78.08.6-.23.56-.44.1-.07.69-.36.1,0,.68-.21.62-.38.07,0,.83-.36a.58.58,0,0,1,.18,0l.86-.1.71-.21.71-.47a.67.67,0,0,1,.48-.09l.85.2.67-.09.77-.34a.61.61,0,0,1,.3-.05l.8.07.79-.18a.61.61,0,0,1,.3,0l.83.22.77.06.85-.06.88-.11a.53.53,0,0,1,.33,0l.74.33.78,0a.59.59,0,0,1,.23.05l.82.38.73.28.84.13a.57.57,0,0,1,.34.18l.6.59.7.35a.45.45,0,0,1,.14.1l.55.5.77.23a.6.6,0,0,1,.31.21l.51.64.66.49a.62.62,0,0,1,.23.32l.27.92-1.19.34-.21-.71-.56-.41-.12-.12-.44-.55-.72-.21a.77.77,0,0,1-.25-.14l-.58-.55-.71-.35a.64.64,0,0,1-.16-.11l-.53-.53-.71-.11ZM19.64,86.85a1.08,1.08,0,0,1,.38.77,1,1,0,0,1-.22.8,1.11,1.11,0,0,1-.76.34L7.7,90H7.53a1.6,1.6,0,0,1-1.08-.42,1.84,1.84,0,0,1-.61-1.17A1.58,1.58,0,0,1,6.46,87l5.2-4.28L5.74,79.53a1.76,1.76,0,0,1-1-1.62,1.35,1.35,0,0,1,.37-1.19,2.07,2.07,0,0,1,1.17-.43l11.3-1.22a1.23,1.23,0,0,1,.84.18,1.1,1.1,0,0,1,.38.77,1.06,1.06,0,0,1-.22.82,1.18,1.18,0,0,1-.77.35l-10,1.07,5.68,3a1.45,1.45,0,0,1,.24,2.37L8.79,87.75l10-1.08A1.09,1.09,0,0,1,19.64,86.85ZM14.47,55.41a7.26,7.26,0,0,0-2.66,14.28,7.92,7.92,0,0,0,1.36.13,7.28,7.28,0,0,0,1.3-14.41Zm3.83,8.1a5.14,5.14,0,0,1-6.09,4.11,5.14,5.14,0,0,1,.85-10.22,6.2,6.2,0,0,1,1,.1A5.13,5.13,0,0,1,18.3,63.51Zm4.43-25.83A7.27,7.27,0,1,0,19.4,51.42a7,7,0,0,0,2.25-.37,7.32,7.32,0,0,0,4.18-3.63A7.16,7.16,0,0,0,22.73,37.68Zm1.37,8.85a5.1,5.1,0,0,1-3,2.58,5.25,5.25,0,0,1-4-.35,5.16,5.16,0,0,1-2.35-7A5.07,5.07,0,0,1,19.3,39a5.47,5.47,0,0,1,2.48.61,5.24,5.24,0,0,1,2.62,3A5,5,0,0,1,24.1,46.53ZM35.87,36a3.59,3.59,0,0,1-.62,3.54,1,1,0,0,1-.75.35.9.9,0,0,1-.59-.22,1.11,1.11,0,0,1-.09-1.52,1.53,1.53,0,0,0,0-1.52,7.34,7.34,0,0,0-1.45-1.54l-9-7.78a1.06,1.06,0,0,1-.42-.72,1,1,0,0,1,.3-.78,1,1,0,0,1,1.51-.1l8.86,7.69A7,7,0,0,1,35.87,36ZM44.7,17.55a6.74,6.74,0,0,1,1.53,4.83,5.77,5.77,0,0,1-2.44,3.83,6,6,0,0,1-3.59,1.31,6.3,6.3,0,0,1-5-2.92l-4-5.45a1,1,0,0,1,.2-1.49h0a1,1,0,0,1,1.5.22l3.66,4.92a6.57,6.57,0,0,0,3,2.51,3.27,3.27,0,0,0,3.08-.66,3.31,3.31,0,0,0,1.52-2.76,6.55,6.55,0,0,0-1.54-3.62L39,13.36a1.05,1.05,0,1,1,1.68-1.26ZM63,9.72c1.35,3.77.08,6.77-3.39,8a6.81,6.81,0,0,1-2.28.42A5.14,5.14,0,0,1,55,17.65a6.68,6.68,0,0,1-3.17-3.94l-2.3-6.39A1,1,0,0,1,50.18,6h0a1,1,0,0,1,1.37.65l2.07,5.77c1.17,3.25,2.9,4.41,5.29,3.55s3-2.91,1.84-6.11L58.68,4a1,1,0,0,1,.63-1.37,1,1,0,0,1,1.35.66ZM87.13,6.87A2.9,2.9,0,0,0,89,4.11c.14-2.34-1.46-3.79-4.39-4L82.35,0a1.41,1.41,0,0,0-1.71,1.52L80,12.17c-.06,1.11.41,1.66,1.51,1.72l2.42.15.57,0c2.81,0,4.55-1.34,4.69-3.65A3.31,3.31,0,0,0,87.13,6.87Zm-4.75.79,1.83.11a3.92,3.92,0,0,1,2.22.67,1.87,1.87,0,0,1,.69,1.68,1.8,1.8,0,0,1-.94,1.57,4.1,4.1,0,0,1-2.19.36l-1.87-.12Zm2.16-1.87-2-.12L82.72,2l1.85.11c1.64.1,2.44.77,2.37,2S86.06,5.89,84.54,5.79ZM103.48,3.7l-3.35-1.06a1.54,1.54,0,0,0-1.31,0,1.63,1.63,0,0,0-.71,1L94.69,14.5a1.13,1.13,0,0,0,0,.87,1,1,0,0,0,.64.48,1.07,1.07,0,0,0,.85,0,1.09,1.09,0,0,0,.49-.68l1.52-4.78,2.06.65,1.4,6.25a1,1,0,0,0,.64.82,1.17,1.17,0,0,0,1.4-.62h0a1.23,1.23,0,0,0,0-.66l-1.18-5.22a3.53,3.53,0,0,0,4.19-2.68C107.5,6.45,106.35,4.6,103.48,3.7Zm1.23,4.58a1.7,1.7,0,0,1-1.13,1.26,3.45,3.45,0,0,1-1.91-.19l-2.86-.9L100,4.7l2.86.91a3.18,3.18,0,0,1,1.7,1A1.75,1.75,0,0,1,104.71,8.28Zm14.12,10.21a.92.92,0,0,1-.62.47,1,1,0,0,1-.77-.18l-3.56-2.17-2.23,3.66L116.1,23a.92.92,0,0,1,.35,1.38h0a1,1,0,0,1-.8.51,1.08,1.08,0,0,1-.59-.19l-4.87-3a1.59,1.59,0,0,1-.85-1,1.68,1.68,0,0,1,.33-1.2l5.56-9.12a1.39,1.39,0,0,1,2.21-.54l4.87,3a.93.93,0,0,1,.33,1.4,1,1,0,0,1-.62.49,1,1,0,0,1-.76-.17l-4.45-2.71-1.9,3.12,3.56,2.17A.92.92,0,0,1,118.83,18.49Zm15.15,4a1.44,1.44,0,0,0-1.63-.35l-11.66,4.92a1.86,1.86,0,0,0-.43.28,1.11,1.11,0,0,0,.11,1.53.94.94,0,0,0,1.15.12l2.57-1.11,4.3,4.39-1.17,2.51a1,1,0,0,0,.12,1.2,1.33,1.33,0,0,0,.9.39.93.93,0,0,0,.65-.26,1.85,1.85,0,0,0,.3-.44l5.14-11.51A1.48,1.48,0,0,0,134,22.48Zm-2,2-2.68,5.86L126.05,27ZM145.4,37.72l-1.1-2a1.39,1.39,0,0,0-2.19-.62l-9.34,5.17a1.69,1.69,0,0,0-.88.88,1.6,1.6,0,0,0,.23,1.31l1.1,2a7.79,7.79,0,0,0,4.2,3.77,6,6,0,0,0,2,.34,7.17,7.17,0,0,0,3.46-.95C146.55,45.58,147.55,41.61,145.4,37.72Zm-3.54,8.05a4.55,4.55,0,0,1-4,.43,6.06,6.06,0,0,1-2.91-2.82l-.8-1.45,8.67-4.8.69,1.25C146,42.87,143.17,45,141.86,45.77ZM53.81,132.2l-2.58,5a.53.53,0,0,1-.47.32.55.55,0,0,1-.28-.08h0a.51.51,0,0,1-.22-.75l1.13-2.17L48.51,133l-1.13,2.18a.52.52,0,0,1-.76.24.5.5,0,0,1-.21-.75l2.57-5a.58.58,0,0,1,.32-.3.54.54,0,0,1,.42.06.51.51,0,0,1,.24.75l-1,1.87,2.88,1.49,1-1.87a.55.55,0,1,1,1,.51Zm5.76,1.6a3.42,3.42,0,1,0-2.26,6.45,3.5,3.5,0,0,0,1.18.21,3.43,3.43,0,0,0,3.06-4.91A3.43,3.43,0,0,0,59.57,133.8Zm1.08,4a2.35,2.35,0,0,1-4.35.27,2.46,2.46,0,0,1,1.11-3.19,2.21,2.21,0,0,1,1-.25,2.39,2.39,0,0,1,.79.14A2.34,2.34,0,0,1,60.65,137.81Zm8.47-.86a.59.59,0,0,1-.23.31l-2.65,2L68,142.13a.51.51,0,0,1,.09.4h0a.59.59,0,0,1-.55.42h-.09a.52.52,0,0,1-.34-.27l-1.78-2.92-.44,2.07a.57.57,0,0,1-1,.21.55.55,0,0,1-.06-.44L65,136.11a.51.51,0,0,1,.65-.43.55.55,0,0,1,.37.24.53.53,0,0,1,.06.42l-.46,2.13,2.66-2a.51.51,0,0,1,.42-.13A.58.58,0,0,1,69.12,137Zm6.72.46a.55.55,0,0,1,.14.38.56.56,0,0,1-.19.34l-2.42,2.25,2.07,2.68a.55.55,0,0,1,.14.39h0a.49.49,0,0,1-.2.34.58.58,0,0,1-.36.14h0a.58.58,0,0,1-.36-.23L72.53,141l-.21,2.1a.56.56,0,0,1-.19.4.58.58,0,0,1-.42.11.52.52,0,0,1-.37-.19.55.55,0,0,1-.11-.43l.56-5.57a.55.55,0,1,1,1.09.11l-.22,2.17,2.42-2.3a.49.49,0,0,1,.41-.17A.56.56,0,0,1,75.84,137.41Zm6,.4a.74.74,0,0,0-.73-.45.73.73,0,0,0-.7.47l-2.08,5.54a1,1,0,0,0,0,.25.57.57,0,0,0,.6.51h0a.49.49,0,0,0,.46-.38l.44-1.2,2.79,0,.46,1.17a.53.53,0,0,0,.49.38h0a.59.59,0,0,0,.61-.54h0a1,1,0,0,0-.06-.26Zm.33,3.66-2,0,1-2.6Zm5-3.91.56,5.56a.54.54,0,0,1-.1.43.56.56,0,0,1-.39.19h-.08a.51.51,0,0,1-.52-.52l-.56-5.56a.5.5,0,0,1,.48-.61A.51.51,0,0,1,87.15,137.56Zm4.32-1.16-1,.21a.7.7,0,0,0-.64.94l.95,4.9c.09.45.31.67.7.67l.25,0,1-.2a3.32,3.32,0,1,0-1.25-6.5Zm1,5.48-.7.14-.85-4.43.59-.12a3,3,0,0,1,1.9.16,2.08,2.08,0,0,1,1.09,1.57h0C94.77,140.6,94,141.58,92.47,141.88Zm7.62-7.83a3.41,3.41,0,0,0-2.17,4.36,3.35,3.35,0,0,0,1.74,2,3.31,3.31,0,0,0,1.48.34,3.45,3.45,0,0,0,1.14-.19,3.42,3.42,0,1,0-2.19-6.48Zm3.22,4.33a2.33,2.33,0,0,1-1.36,1.19,2.3,2.3,0,0,1-1.8-.13A2.39,2.39,0,0,1,99,138.06a2.46,2.46,0,0,1,.09-1.81,2.3,2.3,0,0,1,1.37-1.22,2.46,2.46,0,0,1,.76-.12,2.29,2.29,0,0,1,1,.25,2.43,2.43,0,0,1,1.17,1.4A2.39,2.39,0,0,1,103.31,138.38ZM117.2,131a2,2,0,0,1-.77,2.87,2.67,2.67,0,0,1-1.43.41,2.64,2.64,0,0,1-.55-.06.6.6,0,0,1-.44-.27.58.58,0,0,1-.07-.43.49.49,0,0,1,.21-.3.48.48,0,0,1,.4-.06,1.68,1.68,0,0,0,1.33-.14,1,1,0,0,0,.42-1.38c-.28-.46-.78-.4-1.56-.26s-1.87.31-2.51-.72a1.9,1.9,0,0,1,.79-2.72,2.5,2.5,0,0,1,1.4-.4.6.6,0,0,1,.44.26.53.53,0,0,1-.15.71.62.62,0,0,1-.39.09h-.11a1.62,1.62,0,0,0-.68.23c-.51.32-.67.76-.42,1.17s.89.38,1.57.26h0C115.57,130.1,116.55,129.93,117.2,131Zm7.39-3.71a.9.9,0,0,0-.2-.18l-5.08-3a.78.78,0,0,0-1.12.88l1.68,5.67a.76.76,0,0,0,.11.22.47.47,0,0,0,.39.18h0a.71.71,0,0,0,.4-.13.5.5,0,0,0,.13-.6l-.37-1.21,2.2-1.72,1.07.66a.54.54,0,0,0,.63,0,.57.57,0,0,0,.15-.79Zm-4.37.78-.82-2.65,2.38,1.43Zm6.87-8.66a2.08,2.08,0,0,0-1.61-.7,2.63,2.63,0,0,0-1.62.82l-.88.87a.71.71,0,0,0,0,1.14l3.72,3.78a.58.58,0,0,0,.4.19h0a.53.53,0,0,0,.37-.17h0a.51.51,0,0,0,0-.79l-1.23-1.25.68-.66A2.11,2.11,0,0,0,127.09,119.4Zm-.93,2.48-.66.65-1.57-1.59.66-.65a1.43,1.43,0,0,1,.92-.49,1,1,0,0,1,.81.37A1.11,1.11,0,0,1,126.16,121.88Zm5-3.79.6-.74a2.53,2.53,0,0,0,.67-1.72,2.11,2.11,0,0,0-.84-1.51,2.05,2.05,0,0,0-1.67-.51,2.62,2.62,0,0,0-1.53,1l-.78,1a.83.83,0,0,0-.23.62.89.89,0,0,0,.34.52l4.1,3.36a.64.64,0,0,0,.38.15.57.57,0,0,0,.32-1Zm.18-2.31a1.57,1.57,0,0,1-.41.91l-.59.72L128.57,116l.59-.72c.55-.67,1.13-.77,1.71-.3A1,1,0,0,1,131.3,115.78Zm6.19-8.58a3.38,3.38,0,0,0-2.59-.45,3.46,3.46,0,0,0-2.15,1.54,3.42,3.42,0,1,0,5.79,3.65,3.47,3.47,0,0,0,.47-2.6A3.39,3.39,0,0,0,137.49,107.2Zm.19,4.19a2.34,2.34,0,0,1-1.48,1,2.41,2.41,0,0,1-1.79-.33,2.47,2.47,0,0,1-1.08-1.47,2.35,2.35,0,0,1,1.79-2.84,2.61,2.61,0,0,1,.48,0,2.5,2.5,0,0,1,1.31.39,2.44,2.44,0,0,1,1.07,1.47A2.29,2.29,0,0,1,137.68,111.39Zm5.57-9.64a.61.61,0,0,0-.33,0l-2.41.23a1.67,1.67,0,0,0-1-2.08c-1.12-.52-2.07-.09-2.67,1.22l-.69,1.49a.72.72,0,0,0,.39,1.07l4.81,2.22a.61.61,0,0,0,.28.07.5.5,0,0,0,.46-.32.52.52,0,0,0-.28-.74l-2.08-1,.39-.84,2.94-.27a.55.55,0,0,0,.47-.28.66.66,0,0,0,0-.48A.5.5,0,0,0,143.25,101.75Zm-3.75-.35a1.57,1.57,0,0,1-.19.84l-.56,1.22-1.56-.72.56-1.22a1.44,1.44,0,0,1,.56-.7.78.78,0,0,1,.71,0h0A.73.73,0,0,1,139.5,101.4Zm4.24-9.8a3.36,3.36,0,0,0-2.62.23,3.46,3.46,0,0,0,.56,6.35,3.46,3.46,0,0,0,1,.16A3.42,3.42,0,0,0,146,95.91h0A3.4,3.4,0,0,0,143.74,91.6Zm1.25,4a2.39,2.39,0,1,1-2.33-3.06,2.56,2.56,0,0,1,.76.12,2.41,2.41,0,0,1,1.41,1.15A2.32,2.32,0,0,1,145,95.6Z"/></g></g></svg>